<svg width="1000" height="1285" viewBox="0 0 1000 1285" fill="none" xmlns="http://www.w3.org/2000/svg">
<circle cx="500" cy="500" r="500" fill="url(#paint0_radial_77_39)"/>
<circle cx="501.667" cy="498.333" r="491.667" fill="#00FF66" fill-opacity="0.54"/>
<circle cx="501.667" cy="498.333" r="491.667" fill="url(#paint1_linear_77_39)"/>
<path d="M321.117 1255.39C306.924 1264.9 291.82 1272.19 275.805 1277.27C259.919 1282.34 243.969 1284.88 227.953 1284.88C187.458 1284.88 155.102 1271.6 130.883 1245.04C106.794 1218.35 94.75 1183.32 94.75 1139.96C94.75 1097.12 106.99 1062.29 131.469 1035.47C156.078 1008.65 188.174 995.234 227.758 995.234C247.81 995.234 265.909 999.271 282.055 1007.34C298.331 1015.29 311.612 1026.68 321.898 1041.52L303.734 1053.24C295.01 1041.13 284.073 1031.89 270.922 1025.51C257.901 1019 243.513 1015.74 227.758 1015.74C194.815 1015.74 168.122 1027.2 147.68 1050.12C127.367 1072.9 117.211 1102.59 117.211 1139.18C117.211 1177.2 127.302 1207.6 147.484 1230.39C167.667 1253.05 194.49 1264.38 227.953 1264.38C240.323 1264.38 252.628 1262.62 264.867 1259.1C277.237 1255.59 288.76 1250.38 299.438 1243.48V1159.49H230.688V1139.18H321.117V1255.39ZM379.125 1280V983.906H399.633V1280H379.125ZM542.602 1284.88C513.435 1284.88 489.997 1275.44 472.289 1256.56C454.581 1237.55 445.727 1212.49 445.727 1181.37C445.727 1149.73 455.167 1124.14 474.047 1104.61C493.057 1084.95 516.495 1075.12 544.359 1075.12C573.005 1075.12 595.987 1084.95 613.305 1104.61C630.753 1124.14 639.477 1149.34 639.477 1180.2C639.477 1210.92 630.622 1236.05 612.914 1255.59C595.206 1275.12 571.768 1284.88 542.602 1284.88ZM543.383 1265.94C566.299 1265.94 584.464 1258.12 597.875 1242.5C611.417 1226.74 618.188 1205.91 618.188 1180C618.188 1154.48 611.482 1133.84 598.07 1118.09C584.659 1102.2 566.625 1094.26 543.969 1094.26C521.312 1094.26 502.758 1102.46 488.305 1118.87C473.982 1135.14 466.82 1156.04 466.82 1181.56C466.82 1207.21 473.786 1227.72 487.719 1243.09C501.781 1258.32 520.336 1265.94 543.383 1265.94ZM919.555 1080L858.422 1280H838.695L795.531 1131.76C794.49 1128.37 793.773 1125.83 793.383 1124.14C792.992 1122.32 792.602 1120.43 792.211 1118.48H791.234C790.714 1120.69 790.193 1122.71 789.672 1124.53C789.281 1126.35 788.565 1128.63 787.523 1131.37L739.477 1280H719.945L660.18 1080H681.469L727.367 1235.47C728.018 1237.81 728.539 1239.9 728.93 1241.72C729.451 1243.54 729.906 1245.56 730.297 1247.77H731.859C732.51 1245.56 733.031 1243.54 733.422 1241.72C733.943 1239.9 734.594 1237.81 735.375 1235.47L785.375 1080H800.805L845.336 1235.47C845.857 1237.42 846.312 1239.24 846.703 1240.94C847.224 1242.63 847.81 1244.91 848.461 1247.77H849.828C850.609 1244.91 851.13 1242.7 851.391 1241.13C851.781 1239.57 852.302 1237.68 852.953 1235.47L899.633 1080H919.555Z" fill="#A5FFC9"/>
<defs>
<radialGradient id="paint0_radial_77_39" cx="0" cy="0" r="1" gradientUnits="userSpaceOnUse" gradientTransform="translate(500 500) rotate(90) scale(500)">
<stop offset="0.5" stop-color="white" stop-opacity="0.7"/>
<stop offset="0.936667" stop-color="#00FF66"/>
</radialGradient>
<linearGradient id="paint1_linear_77_39" x1="501.667" y1="6.66666" x2="501.667" y2="990" gradientUnits="userSpaceOnUse">
<stop stop-color="#EFFFF5" stop-opacity="0.79"/>
<stop offset="1" stop-color="white" stop-opacity="0"/>
</linearGradient>
</defs>
</svg>
