<svg width="826" height="302" viewBox="0 0 826 302" fill="none" xmlns="http://www.w3.org/2000/svg">
<path d="M227.117 272.391C212.924 281.896 197.82 289.188 181.805 294.266C165.919 299.344 149.969 301.883 133.953 301.883C93.4583 301.883 61.1016 288.602 36.8828 262.039C12.7943 235.346 0.75 200.32 0.75 156.961C0.75 114.122 12.9896 79.2917 37.4688 52.4688C62.0781 25.6458 94.1745 12.2344 133.758 12.2344C153.81 12.2344 171.909 16.2708 188.055 24.3438C204.331 32.2865 217.612 43.6797 227.898 58.5234L209.734 70.2422C201.01 58.1328 190.073 48.888 176.922 42.5078C163.901 35.9974 149.513 32.7422 133.758 32.7422C100.815 32.7422 74.1224 44.2005 53.6797 67.1172C33.3672 89.9036 23.2109 119.591 23.2109 156.18C23.2109 194.201 33.3021 224.604 53.4844 247.391C73.6667 270.047 100.49 281.375 133.953 281.375C146.323 281.375 158.628 279.617 170.867 276.102C183.237 272.586 194.76 267.378 205.438 260.477V176.492H136.688V156.18H227.117V272.391ZM285.125 297V0.90625H305.633V297H285.125ZM448.602 301.883C419.435 301.883 395.997 292.443 378.289 273.562C360.581 254.552 351.727 229.487 351.727 198.367C351.727 166.727 361.167 141.141 380.047 121.609C399.057 101.948 422.495 92.1172 450.359 92.1172C479.005 92.1172 501.987 101.948 519.305 121.609C536.753 141.141 545.477 166.336 545.477 197.195C545.477 227.924 536.622 253.055 518.914 272.586C501.206 292.117 477.768 301.883 448.602 301.883ZM449.383 282.938C472.299 282.938 490.464 275.125 503.875 259.5C517.417 243.745 524.188 222.911 524.188 197C524.188 171.479 517.482 150.841 504.07 135.086C490.659 119.201 472.625 111.258 449.969 111.258C427.312 111.258 408.758 119.461 394.305 135.867C379.982 152.143 372.82 173.042 372.82 198.562C372.82 224.214 379.786 244.721 393.719 260.086C407.781 275.32 426.336 282.938 449.383 282.938ZM825.555 97L764.422 297H744.695L701.531 148.758C700.49 145.372 699.773 142.833 699.383 141.141C698.992 139.318 698.602 137.43 698.211 135.477H697.234C696.714 137.69 696.193 139.708 695.672 141.531C695.281 143.354 694.565 145.633 693.523 148.367L645.477 297H625.945L566.18 97H587.469L633.367 252.469C634.018 254.812 634.539 256.896 634.93 258.719C635.451 260.542 635.906 262.56 636.297 264.773H637.859C638.51 262.56 639.031 260.542 639.422 258.719C639.943 256.896 640.594 254.812 641.375 252.469L691.375 97H706.805L751.336 252.469C751.857 254.422 752.312 256.245 752.703 257.938C753.224 259.63 753.81 261.909 754.461 264.773H755.828C756.609 261.909 757.13 259.695 757.391 258.133C757.781 256.57 758.302 254.682 758.953 252.469L805.633 97H825.555Z" fill="#A5FFC9"/>
</svg>
