<svg width="1550" height="500" viewBox="0 0 1550 500" fill="none" xmlns="http://www.w3.org/2000/svg">
<circle cx="250" cy="250" r="250" fill="url(#paint0_radial_88_79)"/>
<circle cx="250.833" cy="249.167" r="245.833" fill="#00FF66" fill-opacity="0.54"/>
<circle cx="250.833" cy="249.167" r="245.833" fill="url(#paint1_linear_88_79)"/>
<path d="M748.523 391.906C708.159 391.906 677.625 379.797 656.922 355.578C636.219 331.359 625.867 295.812 625.867 248.938C625.867 203.755 636.414 168.794 657.508 144.055C678.732 119.185 708.549 106.75 746.961 106.75C765.711 106.75 782.247 109.68 796.57 115.539C810.893 121.268 821.635 129.406 828.797 139.953L804.773 163.781C798.263 155.057 790.125 148.352 780.359 143.664C770.724 138.977 760.372 136.633 749.305 136.633C721.049 136.633 699.044 146.268 683.289 165.539C667.664 184.68 659.852 211.828 659.852 246.984C659.852 284.615 667.794 313.195 683.68 332.727C699.565 352.258 722.742 362.023 753.211 362.023C765.451 362.023 776.258 360.852 785.633 358.508C795.008 356.034 802.69 353.951 808.68 352.258L822.742 380.188C817.273 381.88 807.833 384.289 794.422 387.414C781.01 390.409 765.711 391.906 748.523 391.906ZM790.711 380.188V252.648H822.742V380.188H790.711ZM730.555 283.117V252.648H821.57V283.117H730.555ZM998.914 391.906C975.216 391.906 957.833 385.591 946.766 372.961C935.828 360.201 930.359 340.279 930.359 313.195V95.0312H963.953V311.828C963.953 323.156 965.32 332.466 968.055 339.758C970.789 347.049 975.477 352.453 982.117 355.969C988.888 359.484 998.198 361.242 1010.05 361.242C1020.72 361.242 1034.27 358.964 1050.67 354.406L1054.58 384.289C1045.07 387.023 1035.96 388.977 1027.23 390.148C1018.51 391.32 1009.07 391.906 998.914 391.906ZM867.078 125.109V95.0312H933.875V125.109H867.078ZM1197.94 391.906C1169.81 391.906 1147.94 382.531 1132.31 363.781C1116.69 345.031 1108.88 318.599 1108.88 284.484C1108.88 250.24 1116.69 223.807 1132.31 205.188C1147.94 186.438 1169.81 177.062 1197.94 177.062C1226.19 177.062 1248.07 186.438 1263.56 205.188C1279.19 223.807 1287 250.24 1287 284.484C1287 318.599 1279.19 345.031 1263.56 363.781C1248.07 382.531 1226.19 391.906 1197.94 391.906ZM1197.94 361.242C1215.26 361.242 1228.6 354.602 1237.98 341.32C1247.35 327.909 1252.04 308.964 1252.04 284.484C1252.04 260.005 1247.35 241.125 1237.98 227.844C1228.6 214.432 1215.26 207.727 1197.94 207.727C1180.62 207.727 1167.27 214.432 1157.9 227.844C1148.52 241.125 1143.84 260.005 1143.84 284.484C1143.84 308.964 1148.52 327.909 1157.9 341.32C1167.27 354.602 1180.62 361.242 1197.94 361.242ZM1458.09 388L1431.53 214.562H1428.6L1412.98 180.969H1447.74L1474.89 362.023H1478.02L1501.45 180.969H1534.27L1501.45 388H1458.09ZM1357.31 388L1330.36 180.969H1361.8L1382.7 362.023H1385.83L1412.98 180.969H1447.74L1432.12 214.562H1429.19L1402.82 388H1357.31Z" fill="#A5FFC9"/>
<defs>
<radialGradient id="paint0_radial_88_79" cx="0" cy="0" r="1" gradientUnits="userSpaceOnUse" gradientTransform="translate(250 250) rotate(90) scale(250)">
<stop offset="0.5" stop-color="white" stop-opacity="0.7"/>
<stop offset="0.936667" stop-color="#00FF66"/>
</radialGradient>
<linearGradient id="paint1_linear_88_79" x1="250.833" y1="3.33325" x2="250.833" y2="495" gradientUnits="userSpaceOnUse">
<stop stop-color="#EFFFF5" stop-opacity="0.79"/>
<stop offset="1" stop-color="white" stop-opacity="0"/>
</linearGradient>
</defs>
</svg>
