<svg width="1000" height="1310" viewBox="0 0 1000 1310" fill="none" xmlns="http://www.w3.org/2000/svg">
<ellipse cx="500" cy="500.986" rx="500" ry="500.986" fill="#27C955"/>
<ellipse cx="499.5" cy="508.779" rx="482.5" ry="493.516" fill="url(#paint0_linear_549_108)"/>
<path d="M259 1198.81V1158.01H257.8C251 1184.01 222.6 1203.61 180.2 1203.61C111.8 1203.61 64.2 1152.81 64.2 1059.21C64.2 966.406 111.4 914.806 183 914.806C233 914.806 266.6 939.606 284.6 976.006L257 992.806C244.2 963.206 218.2 944.806 183 944.806C133.8 944.806 100.2 981.206 100.2 1036.41V1081.61C100.2 1136.81 133 1173.61 186.2 1173.61C225 1173.61 257.4 1153.61 257.4 1112.41V1084.81H195.8V1055.21H290.2V1198.81H259ZM415.525 1198.81H387.125C365.125 1198.81 353.125 1184.81 353.125 1165.61V902.806H385.125V1170.81H415.525V1198.81ZM540.109 1203.61C484.909 1203.61 446.909 1161.21 446.909 1095.61C446.909 1030.01 484.909 987.606 540.109 987.606C595.309 987.606 633.309 1030.01 633.309 1095.61C633.309 1161.21 595.309 1203.61 540.109 1203.61ZM540.109 1175.21C574.509 1175.21 598.909 1154.01 598.909 1110.41V1080.81C598.909 1037.21 574.509 1016.01 540.109 1016.01C505.709 1016.01 481.309 1037.21 481.309 1080.81V1110.41C481.309 1154.01 505.709 1175.21 540.109 1175.21ZM717.584 1198.81L662.384 992.406H693.584L715.584 1081.61L737.584 1172.01H738.384L763.584 1081.61L789.584 992.406H817.984L844.784 1081.61L870.384 1172.01H871.184L892.384 1081.61L914.784 992.406H944.784L889.984 1198.81H850.384L821.584 1099.61L803.584 1036.81H802.784L785.184 1099.61L756.384 1198.81H717.584Z" fill="url(#paint1_linear_549_108)"/>
<defs>
<linearGradient id="paint0_linear_549_108" x1="499.5" y1="15.2634" x2="499.5" y2="1002.3" gradientUnits="userSpaceOnUse">
<stop stop-color="#AFDDEC"/>
<stop offset="0.526042" stop-color="#FAFF1A" stop-opacity="0"/>
</linearGradient>
<linearGradient id="paint1_linear_549_108" x1="499.5" y1="788.806" x2="499.5" y2="1310" gradientUnits="userSpaceOnUse">
<stop stop-color="#05501A"/>
<stop offset="1" stop-color="white"/>
</linearGradient>
</defs>
</svg>
