<svg width="1000" height="1000" viewBox="0 0 1000 1000" fill="none" xmlns="http://www.w3.org/2000/svg">
<circle cx="500" cy="500" r="500" fill="#27C955"/>
<ellipse cx="499.5" cy="507.5" rx="482.5" ry="492.5" fill="url(#paint0_linear_7_62)"/>
<path d="M157.164 646.102C128.909 646.102 104.82 640.242 84.8984 628.523C64.9766 616.805 49.6771 600.529 39 579.695C28.4531 558.862 23.1797 534.708 23.1797 507.234V497.469C23.1797 469.083 28.4531 444.083 39 422.469C49.5469 400.854 64.4557 383.992 83.7266 371.883C103.128 359.643 126.044 353.523 152.477 353.523C172.919 353.523 192.125 356.323 210.094 361.922C228.062 367.521 243.688 375.919 256.969 387.117V450.203H214.781L206.773 412.117C201.695 407.69 194.859 404.174 186.266 401.57C177.672 398.836 167.841 397.469 156.773 397.469C140.888 397.469 127.151 401.701 115.562 410.164C104.104 418.497 95.3151 430.151 89.1953 445.125C83.0755 459.969 80.0156 477.286 80.0156 497.078V507.234C80.0156 526.505 83.0104 543.302 89 557.625C95.1198 571.818 104.039 582.82 115.758 590.633C127.477 598.445 141.865 602.352 158.922 602.352C168.948 602.352 178.128 601.44 186.461 599.617C194.924 597.664 201.891 595.32 207.359 592.586V544.344L166.734 541.219V501.18H264.586V616.219C251.956 625.203 236.721 632.43 218.883 637.898C201.174 643.367 180.602 646.102 157.164 646.102ZM291.539 642V607.82L319.078 601.961V377.547L288.609 371.688V337.312H376.109V601.961L403.648 607.82V642H291.539ZM519.273 646.102C498.44 646.102 480.536 641.544 465.562 632.43C450.589 623.315 439.13 610.685 431.188 594.539C423.245 578.263 419.273 559.578 419.273 538.484V534.383C419.273 513.419 423.245 494.865 431.188 478.719C439.13 462.443 450.523 449.747 465.367 440.633C480.341 431.388 498.18 426.766 518.883 426.766C539.846 426.766 557.75 431.388 572.594 440.633C587.438 449.747 598.831 462.378 606.773 478.523C614.716 494.669 618.688 513.289 618.688 534.383V538.484C618.688 559.578 614.716 578.263 606.773 594.539C598.831 610.685 587.438 623.315 572.594 632.43C557.75 641.544 539.977 646.102 519.273 646.102ZM519.273 602.352C529.169 602.352 537.242 599.682 543.492 594.344C549.742 589.005 554.365 581.583 557.359 572.078C560.354 562.443 561.852 551.245 561.852 538.484V534.383C561.852 521.883 560.354 510.88 557.359 501.375C554.365 491.74 549.677 484.253 543.297 478.914C537.047 473.445 528.909 470.711 518.883 470.711C509.117 470.711 501.044 473.445 494.664 478.914C488.284 484.253 483.596 491.74 480.602 501.375C477.737 510.88 476.305 521.883 476.305 534.383V538.484C476.305 551.245 477.737 562.443 480.602 572.078C483.596 581.714 488.284 589.201 494.664 594.539C501.044 599.747 509.247 602.352 519.273 602.352ZM707.555 642L658.336 469.734L632.555 465.047V430.672H734.703V464.852L712.438 469.148L731.969 551.375L735.875 567.586H737.047L742.32 551.375L785.68 430.672H823.961L865.953 552.938L871.422 570.125H872.594L877.672 552.938L900.719 469.344L876.109 464.852V430.672H976.109V465.047L951.5 469.734L897.789 642H849.742L811.07 537.312L804.234 514.07H803.062L796.227 537.508L758.141 642H707.555Z" fill="url(#paint1_linear_7_62)"/>
<defs>
<linearGradient id="paint0_linear_7_62" x1="499.5" y1="15" x2="499.5" y2="1000" gradientUnits="userSpaceOnUse">
<stop stop-color="#AFDDEC"/>
<stop offset="0.526042" stop-color="#FAFF1A" stop-opacity="0"/>
</linearGradient>
<linearGradient id="paint1_linear_7_62" x1="498" y1="358" x2="498" y2="642" gradientUnits="userSpaceOnUse">
<stop stop-color="white"/>
<stop offset="1" stop-color="#51EB7D" stop-opacity="0.95"/>
</linearGradient>
</defs>
</svg>
