<svg width="1000" height="1281" viewBox="0 0 1000 1281" fill="none" xmlns="http://www.w3.org/2000/svg">
<circle cx="500" cy="500" r="500" fill="url(#paint0_radial_88_65)"/>
<circle cx="501.667" cy="498.333" r="491.667" fill="#00FF66" fill-opacity="0.54"/>
<circle cx="501.667" cy="498.333" r="491.667" fill="url(#paint1_linear_88_65)"/>
<path d="M167.523 1280.91C127.159 1280.91 96.625 1268.8 75.9219 1244.58C55.2188 1220.36 44.8672 1184.81 44.8672 1137.94C44.8672 1092.76 55.4141 1057.79 76.5078 1033.05C97.7318 1008.18 127.549 995.75 165.961 995.75C184.711 995.75 201.247 998.68 215.57 1004.54C229.893 1010.27 240.635 1018.41 247.797 1028.95L223.773 1052.78C217.263 1044.06 209.125 1037.35 199.359 1032.66C189.724 1027.98 179.372 1025.63 168.305 1025.63C140.049 1025.63 118.044 1035.27 102.289 1054.54C86.6641 1073.68 78.8516 1100.83 78.8516 1135.98C78.8516 1173.61 86.7943 1202.2 102.68 1221.73C118.565 1241.26 141.742 1251.02 172.211 1251.02C184.451 1251.02 195.258 1249.85 204.633 1247.51C214.008 1245.03 221.69 1242.95 227.68 1241.26L241.742 1269.19C236.273 1270.88 226.833 1273.29 213.422 1276.41C200.01 1279.41 184.711 1280.91 167.523 1280.91ZM209.711 1269.19V1141.65H241.742V1269.19H209.711ZM149.555 1172.12V1141.65H240.57V1172.12H149.555ZM417.914 1280.91C394.216 1280.91 376.833 1274.59 365.766 1261.96C354.828 1249.2 349.359 1229.28 349.359 1202.2V984.031H382.953V1200.83C382.953 1212.16 384.32 1221.47 387.055 1228.76C389.789 1236.05 394.477 1241.45 401.117 1244.97C407.888 1248.48 417.198 1250.24 429.047 1250.24C439.724 1250.24 453.266 1247.96 469.672 1243.41L473.578 1273.29C464.073 1276.02 454.958 1277.98 446.234 1279.15C437.51 1280.32 428.07 1280.91 417.914 1280.91ZM286.078 1014.11V984.031H352.875V1014.11H286.078ZM616.938 1280.91C588.812 1280.91 566.938 1271.53 551.312 1252.78C535.688 1234.03 527.875 1207.6 527.875 1173.48C527.875 1139.24 535.688 1112.81 551.312 1094.19C566.938 1075.44 588.812 1066.06 616.938 1066.06C645.193 1066.06 667.068 1075.44 682.562 1094.19C698.188 1112.81 706 1139.24 706 1173.48C706 1207.6 698.188 1234.03 682.562 1252.78C667.068 1271.53 645.193 1280.91 616.938 1280.91ZM616.938 1250.24C634.255 1250.24 647.602 1243.6 656.977 1230.32C666.352 1216.91 671.039 1197.96 671.039 1173.48C671.039 1149.01 666.352 1130.12 656.977 1116.84C647.602 1103.43 634.255 1096.73 616.938 1096.73C599.62 1096.73 586.273 1103.43 576.898 1116.84C567.523 1130.12 562.836 1149.01 562.836 1173.48C562.836 1197.96 567.523 1216.91 576.898 1230.32C586.273 1243.6 599.62 1250.24 616.938 1250.24ZM877.094 1277L850.531 1103.56H847.602L831.977 1069.97H866.742L893.891 1251.02H897.016L920.453 1069.97H953.266L920.453 1277H877.094ZM776.312 1277L749.359 1069.97H780.805L801.703 1251.02H804.828L831.977 1069.97H866.742L851.117 1103.56H848.188L821.82 1277H776.312Z" fill="#A5FFC9"/>
<defs>
<radialGradient id="paint0_radial_88_65" cx="0" cy="0" r="1" gradientUnits="userSpaceOnUse" gradientTransform="translate(500 500) rotate(90) scale(500)">
<stop offset="0.5" stop-color="white" stop-opacity="0.7"/>
<stop offset="0.936667" stop-color="#00FF66"/>
</radialGradient>
<linearGradient id="paint1_linear_88_65" x1="501.667" y1="6.6665" x2="501.667" y2="990" gradientUnits="userSpaceOnUse">
<stop stop-color="#EFFFF5" stop-opacity="0.79"/>
<stop offset="1" stop-color="white" stop-opacity="0"/>
</linearGradient>
</defs>
</svg>
