<svg width="968" height="310" viewBox="0 0 968 310" fill="none" xmlns="http://www.w3.org/2000/svg">
<path d="M143.164 309.102C114.909 309.102 90.8203 303.242 70.8984 291.523C50.9766 279.805 35.6771 263.529 25 242.695C14.4531 221.862 9.17969 197.708 9.17969 170.234V160.469C9.17969 132.083 14.4531 107.083 25 85.4688C35.5469 63.8542 50.4557 46.9922 69.7266 34.8828C89.1276 22.6432 112.044 16.5234 138.477 16.5234C158.919 16.5234 178.125 19.3229 196.094 24.9219C214.062 30.5208 229.688 38.9193 242.969 50.1172V113.203H200.781L192.773 75.1172C187.695 70.6901 180.859 67.1745 172.266 64.5703C163.672 61.8359 153.841 60.4688 142.773 60.4688C126.888 60.4688 113.151 64.7005 101.562 73.1641C90.1042 81.4974 81.3151 93.151 75.1953 108.125C69.0755 122.969 66.0156 140.286 66.0156 160.078V170.234C66.0156 189.505 69.0104 206.302 75 220.625C81.1198 234.818 90.0391 245.82 101.758 253.633C113.477 261.445 127.865 265.352 144.922 265.352C154.948 265.352 164.128 264.44 172.461 262.617C180.924 260.664 187.891 258.32 193.359 255.586V207.344L152.734 204.219V164.18H250.586V279.219C237.956 288.203 222.721 295.43 204.883 300.898C187.174 306.367 166.602 309.102 143.164 309.102ZM277.539 305V270.82L305.078 264.961V40.5469L274.609 34.6875V0.3125H362.109V264.961L389.648 270.82V305H277.539ZM505.273 309.102C484.44 309.102 466.536 304.544 451.562 295.43C436.589 286.315 425.13 273.685 417.188 257.539C409.245 241.263 405.273 222.578 405.273 201.484V197.383C405.273 176.419 409.245 157.865 417.188 141.719C425.13 125.443 436.523 112.747 451.367 103.633C466.341 94.388 484.18 89.7656 504.883 89.7656C525.846 89.7656 543.75 94.388 558.594 103.633C573.438 112.747 584.831 125.378 592.773 141.523C600.716 157.669 604.688 176.289 604.688 197.383V201.484C604.688 222.578 600.716 241.263 592.773 257.539C584.831 273.685 573.438 286.315 558.594 295.43C543.75 304.544 525.977 309.102 505.273 309.102ZM505.273 265.352C515.169 265.352 523.242 262.682 529.492 257.344C535.742 252.005 540.365 244.583 543.359 235.078C546.354 225.443 547.852 214.245 547.852 201.484V197.383C547.852 184.883 546.354 173.88 543.359 164.375C540.365 154.74 535.677 147.253 529.297 141.914C523.047 136.445 514.909 133.711 504.883 133.711C495.117 133.711 487.044 136.445 480.664 141.914C474.284 147.253 469.596 154.74 466.602 164.375C463.737 173.88 462.305 184.883 462.305 197.383V201.484C462.305 214.245 463.737 225.443 466.602 235.078C469.596 244.714 474.284 252.201 480.664 257.539C487.044 262.747 495.247 265.352 505.273 265.352ZM693.555 305L644.336 132.734L618.555 128.047V93.6719H720.703V127.852L698.438 132.148L717.969 214.375L721.875 230.586H723.047L728.32 214.375L771.68 93.6719H809.961L851.953 215.938L857.422 233.125H858.594L863.672 215.938L886.719 132.344L862.109 127.852V93.6719H962.109V128.047L937.5 132.734L883.789 305H835.742L797.07 200.312L790.234 177.07H789.062L782.227 200.508L744.141 305H693.555Z" fill="url(#paint0_linear_1_51)"/>
<defs>
<linearGradient id="paint0_linear_1_51" x1="484" y1="21" x2="484" y2="305" gradientUnits="userSpaceOnUse">
<stop stop-color="white"/>
<stop offset="1" stop-color="#51EB7D" stop-opacity="0.95"/>
</linearGradient>
</defs>
</svg>
