<svg width="938" height="297" viewBox="0 0 938 297" fill="none" xmlns="http://www.w3.org/2000/svg">
<path d="M136.523 296.906C96.1589 296.906 65.625 284.797 44.9219 260.578C24.2188 236.359 13.8672 200.812 13.8672 153.938C13.8672 108.755 24.4141 73.7943 45.5078 49.0547C66.7318 24.1849 96.5495 11.75 134.961 11.75C153.711 11.75 170.247 14.6797 184.57 20.5391C198.893 26.2682 209.635 34.4062 216.797 44.9531L192.773 68.7812C186.263 60.0573 178.125 53.3516 168.359 48.6641C158.724 43.9766 148.372 41.6328 137.305 41.6328C109.049 41.6328 87.0443 51.2682 71.2891 70.5391C55.6641 89.6797 47.8516 116.828 47.8516 151.984C47.8516 189.615 55.7943 218.195 71.6797 237.727C87.5651 257.258 110.742 267.023 141.211 267.023C153.451 267.023 164.258 265.852 173.633 263.508C183.008 261.034 190.69 258.951 196.68 257.258L210.742 285.188C205.273 286.88 195.833 289.289 182.422 292.414C169.01 295.409 153.711 296.906 136.523 296.906ZM178.711 285.188V157.648H210.742V285.188H178.711ZM118.555 188.117V157.648H209.57V188.117H118.555ZM386.914 296.906C363.216 296.906 345.833 290.591 334.766 277.961C323.828 265.201 318.359 245.279 318.359 218.195V0.03125H351.953V216.828C351.953 228.156 353.32 237.466 356.055 244.758C358.789 252.049 363.477 257.453 370.117 260.969C376.888 264.484 386.198 266.242 398.047 266.242C408.724 266.242 422.266 263.964 438.672 259.406L442.578 289.289C433.073 292.023 423.958 293.977 415.234 295.148C406.51 296.32 397.07 296.906 386.914 296.906ZM255.078 30.1094V0.03125H321.875V30.1094H255.078ZM585.938 296.906C557.812 296.906 535.938 287.531 520.312 268.781C504.688 250.031 496.875 223.599 496.875 189.484C496.875 155.24 504.688 128.807 520.312 110.188C535.938 91.4375 557.812 82.0625 585.938 82.0625C614.193 82.0625 636.068 91.4375 651.562 110.188C667.188 128.807 675 155.24 675 189.484C675 223.599 667.188 250.031 651.562 268.781C636.068 287.531 614.193 296.906 585.938 296.906ZM585.938 266.242C603.255 266.242 616.602 259.602 625.977 246.32C635.352 232.909 640.039 213.964 640.039 189.484C640.039 165.005 635.352 146.125 625.977 132.844C616.602 119.432 603.255 112.727 585.938 112.727C568.62 112.727 555.273 119.432 545.898 132.844C536.523 146.125 531.836 165.005 531.836 189.484C531.836 213.964 536.523 232.909 545.898 246.32C555.273 259.602 568.62 266.242 585.938 266.242ZM846.094 293L819.531 119.562H816.602L800.977 85.9688H835.742L862.891 267.023H866.016L889.453 85.9688H922.266L889.453 293H846.094ZM745.312 293L718.359 85.9688H749.805L770.703 267.023H773.828L800.977 85.9688H835.742L820.117 119.562H817.188L790.82 293H745.312Z" fill="#A5FFC9"/>
</svg>
